<mxfile host="app.diagrams.net" agent="Mozilla/5.0 (Windows NT 10.0; Win64; x64) AppleWebKit/537.36 (KHTML, like Gecko) Chrome/127.0.0.0 Safari/537.36" version="24.7.5">
  <diagram name="第 1 页" id="_tVUhnaGNXty3jyY5I3W">
    <mxGraphModel dx="2074" dy="1193" grid="1" gridSize="10" guides="1" tooltips="1" connect="1" arrows="1" fold="1" page="1" pageScale="1" pageWidth="1600" pageHeight="900" background="#CCCCCC" math="0" shadow="0">
      <root>
        <mxCell id="0" />
        <mxCell id="1" parent="0" />
        <mxCell id="ZQNpyQsOxcMmFD1VXHvY-2" value="" style="rounded=0;whiteSpace=wrap;html=1;" parent="1" vertex="1">
          <mxGeometry x="640" y="150" width="510" height="460" as="geometry" />
        </mxCell>
        <mxCell id="ZQNpyQsOxcMmFD1VXHvY-4" value="ioc 容器" style="text;html=1;align=center;verticalAlign=middle;whiteSpace=wrap;rounded=0;" parent="1" vertex="1">
          <mxGeometry x="855" y="180" width="60" height="30" as="geometry" />
        </mxCell>
        <mxCell id="ZQNpyQsOxcMmFD1VXHvY-39" value="bean定义信息&lt;div style=&quot;font-size: 15px;&quot;&gt;BeanDefinition&lt;/div&gt;" style="rounded=0;whiteSpace=wrap;html=1;" parent="1" vertex="1">
          <mxGeometry x="640" y="320" width="110" height="80" as="geometry" />
        </mxCell>
        <mxCell id="ZQNpyQsOxcMmFD1VXHvY-41" value="&lt;font style=&quot;font-size: 15px;&quot;&gt;接口抽象&lt;/font&gt;&lt;div style=&quot;font-size: 15px;&quot;&gt;&lt;font style=&quot;font-size: 15px;&quot;&gt;定义读取配置文件的规范&lt;/font&gt;&lt;/div&gt;&lt;div style=&quot;font-size: 15px;&quot;&gt;&lt;font style=&quot;font-size: 15px;&quot;&gt;&lt;br&gt;&lt;/font&gt;&lt;/div&gt;&lt;div style=&quot;font-size: 15px;&quot;&gt;&lt;font style=&quot;font-size: 15px;&quot;&gt;&lt;br&gt;&lt;/font&gt;&lt;/div&gt;&lt;div style=&quot;font-size: 15px;&quot;&gt;BeanDefinitionReader&lt;/div&gt;" style="rounded=0;whiteSpace=wrap;html=1;" parent="1" vertex="1">
          <mxGeometry x="390" y="190" width="160" height="390" as="geometry" />
        </mxCell>
        <mxCell id="ZQNpyQsOxcMmFD1VXHvY-44" value="xml" style="rounded=0;whiteSpace=wrap;html=1;" parent="1" vertex="1">
          <mxGeometry x="10" y="230" width="120" height="60" as="geometry" />
        </mxCell>
        <mxCell id="ZQNpyQsOxcMmFD1VXHvY-46" value="yaml" style="rounded=0;whiteSpace=wrap;html=1;" parent="1" vertex="1">
          <mxGeometry x="10" y="340" width="120" height="60" as="geometry" />
        </mxCell>
        <mxCell id="ZQNpyQsOxcMmFD1VXHvY-47" value="json" style="rounded=0;whiteSpace=wrap;html=1;" parent="1" vertex="1">
          <mxGeometry x="10" y="450" width="120" height="60" as="geometry" />
        </mxCell>
        <mxCell id="ZQNpyQsOxcMmFD1VXHvY-49" value="" style="edgeStyle=segmentEdgeStyle;endArrow=classic;html=1;curved=0;rounded=0;endSize=8;startSize=8;" parent="1" edge="1">
          <mxGeometry width="50" height="50" relative="1" as="geometry">
            <mxPoint x="550" y="360" as="sourcePoint" />
            <mxPoint x="640" y="360" as="targetPoint" />
            <Array as="points" />
          </mxGeometry>
        </mxCell>
        <mxCell id="ZQNpyQsOxcMmFD1VXHvY-50" value="" style="edgeStyle=segmentEdgeStyle;endArrow=classic;html=1;curved=0;rounded=0;endSize=8;startSize=8;exitX=1;exitY=0.5;exitDx=0;exitDy=0;" parent="1" source="ZQNpyQsOxcMmFD1VXHvY-44" edge="1">
          <mxGeometry width="50" height="50" relative="1" as="geometry">
            <mxPoint x="310" y="259.5" as="sourcePoint" />
            <mxPoint x="380" y="260" as="targetPoint" />
            <Array as="points" />
          </mxGeometry>
        </mxCell>
        <mxCell id="ZQNpyQsOxcMmFD1VXHvY-72" value="&lt;font style=&quot;font-size: 15px;&quot;&gt;ClassPathXmlApplicationContext&lt;/font&gt;" style="edgeLabel;html=1;align=center;verticalAlign=middle;resizable=0;points=[];" parent="ZQNpyQsOxcMmFD1VXHvY-50" vertex="1" connectable="0">
          <mxGeometry x="-0.16" y="-2" relative="1" as="geometry">
            <mxPoint x="15" y="-2" as="offset" />
          </mxGeometry>
        </mxCell>
        <mxCell id="ZQNpyQsOxcMmFD1VXHvY-53" value="" style="edgeStyle=segmentEdgeStyle;endArrow=classic;html=1;curved=0;rounded=0;endSize=8;startSize=8;exitX=1;exitY=0.5;exitDx=0;exitDy=0;" parent="1" source="ZQNpyQsOxcMmFD1VXHvY-47" edge="1">
          <mxGeometry width="50" height="50" relative="1" as="geometry">
            <mxPoint x="310" y="479.5" as="sourcePoint" />
            <mxPoint x="380" y="480" as="targetPoint" />
            <Array as="points" />
          </mxGeometry>
        </mxCell>
        <mxCell id="ZQNpyQsOxcMmFD1VXHvY-74" value="Text" style="edgeLabel;html=1;align=center;verticalAlign=middle;resizable=0;points=[];" parent="ZQNpyQsOxcMmFD1VXHvY-53" vertex="1" connectable="0">
          <mxGeometry x="-0.04" relative="1" as="geometry">
            <mxPoint as="offset" />
          </mxGeometry>
        </mxCell>
        <mxCell id="ZQNpyQsOxcMmFD1VXHvY-54" value="" style="edgeStyle=segmentEdgeStyle;endArrow=classic;html=1;curved=0;rounded=0;endSize=8;startSize=8;exitX=1;exitY=0.5;exitDx=0;exitDy=0;" parent="1" source="ZQNpyQsOxcMmFD1VXHvY-46" edge="1">
          <mxGeometry width="50" height="50" relative="1" as="geometry">
            <mxPoint x="310" y="369.5" as="sourcePoint" />
            <mxPoint x="380" y="370" as="targetPoint" />
            <Array as="points" />
          </mxGeometry>
        </mxCell>
        <mxCell id="ZQNpyQsOxcMmFD1VXHvY-73" value="Text" style="edgeLabel;html=1;align=center;verticalAlign=middle;resizable=0;points=[];" parent="ZQNpyQsOxcMmFD1VXHvY-54" vertex="1" connectable="0">
          <mxGeometry x="-0.056" relative="1" as="geometry">
            <mxPoint as="offset" />
          </mxGeometry>
        </mxCell>
        <mxCell id="ZQNpyQsOxcMmFD1VXHvY-68" value="&lt;div data-darkreader-inline-bgcolor=&quot;&quot; style=&quot;background-color: rgb(38, 50, 56); --darkreader-inline-bgcolor: #1e282d;&quot;&gt;&lt;pre style=&quot;font-family: &amp;quot;JetBrains Mono&amp;quot;, monospace;&quot;&gt;&lt;br&gt;&lt;/pre&gt;&lt;/div&gt;" style="text;html=1;align=center;verticalAlign=middle;resizable=0;points=[];autosize=1;" parent="1" vertex="1">
          <mxGeometry x="245" y="210" width="20" height="50" as="geometry" />
        </mxCell>
        <mxCell id="ZQNpyQsOxcMmFD1VXHvY-75" value="" style="rounded=0;whiteSpace=wrap;html=1;" parent="1" vertex="1">
          <mxGeometry x="790" y="230" width="160" height="300" as="geometry" />
        </mxCell>
        <mxCell id="ZQNpyQsOxcMmFD1VXHvY-76" value="" style="edgeStyle=segmentEdgeStyle;endArrow=classic;html=1;curved=0;rounded=0;endSize=8;startSize=8;" parent="1" edge="1">
          <mxGeometry width="50" height="50" relative="1" as="geometry">
            <mxPoint x="750" y="359.5" as="sourcePoint" />
            <mxPoint x="790" y="360" as="targetPoint" />
            <Array as="points">
              <mxPoint x="768" y="359" />
            </Array>
          </mxGeometry>
        </mxCell>
        <mxCell id="ZQNpyQsOxcMmFD1VXHvY-79" value="反射" style="edgeLabel;html=1;align=center;verticalAlign=middle;resizable=0;points=[];" parent="ZQNpyQsOxcMmFD1VXHvY-76" vertex="1" connectable="0">
          <mxGeometry x="-0.2001" y="-2" relative="1" as="geometry">
            <mxPoint y="-1" as="offset" />
          </mxGeometry>
        </mxCell>
        <mxCell id="ZQNpyQsOxcMmFD1VXHvY-77" value="实例化bean" style="text;html=1;align=center;verticalAlign=middle;whiteSpace=wrap;rounded=0;" parent="1" vertex="1">
          <mxGeometry x="840" y="240" width="60" height="30" as="geometry" />
        </mxCell>
        <mxCell id="ZQNpyQsOxcMmFD1VXHvY-80" value="实例化(在堆中开辟一块空间,属性都是默认值)" style="rounded=0;whiteSpace=wrap;html=1;" parent="1" vertex="1">
          <mxGeometry x="820" y="280" width="100" height="60" as="geometry" />
        </mxCell>
        <mxCell id="ZQNpyQsOxcMmFD1VXHvY-81" value="初始化(给属性完成赋值操作)" style="rounded=0;whiteSpace=wrap;html=1;" parent="1" vertex="1">
          <mxGeometry x="820" y="410" width="100" height="60" as="geometry" />
        </mxCell>
        <mxCell id="ZQNpyQsOxcMmFD1VXHvY-82" value="完整bean" style="rounded=0;whiteSpace=wrap;html=1;" parent="1" vertex="1">
          <mxGeometry x="980" y="330" width="120" height="60" as="geometry" />
        </mxCell>
        <mxCell id="ZQNpyQsOxcMmFD1VXHvY-83" value="完整bean" style="rounded=0;whiteSpace=wrap;html=1;" parent="1" vertex="1">
          <mxGeometry x="990" y="340" width="120" height="60" as="geometry" />
        </mxCell>
        <mxCell id="ZQNpyQsOxcMmFD1VXHvY-84" value="完整bean" style="rounded=0;whiteSpace=wrap;html=1;" parent="1" vertex="1">
          <mxGeometry x="1000" y="350" width="120" height="60" as="geometry" />
        </mxCell>
        <mxCell id="ZQNpyQsOxcMmFD1VXHvY-85" value="完整bean" style="rounded=0;whiteSpace=wrap;html=1;" parent="1" vertex="1">
          <mxGeometry x="1010" y="360" width="120" height="60" as="geometry" />
        </mxCell>
        <mxCell id="ZQNpyQsOxcMmFD1VXHvY-86" value="完整bean" style="rounded=0;whiteSpace=wrap;html=1;" parent="1" vertex="1">
          <mxGeometry x="1020" y="370" width="120" height="60" as="geometry" />
        </mxCell>
        <mxCell id="ZQNpyQsOxcMmFD1VXHvY-87" value="" style="edgeStyle=segmentEdgeStyle;endArrow=classic;html=1;curved=0;rounded=0;endSize=8;startSize=8;" parent="1" edge="1">
          <mxGeometry width="50" height="50" relative="1" as="geometry">
            <mxPoint x="950" y="360" as="sourcePoint" />
            <mxPoint x="980" y="360" as="targetPoint" />
            <Array as="points">
              <mxPoint x="960" y="360" />
              <mxPoint x="960" y="360" />
            </Array>
          </mxGeometry>
        </mxCell>
      </root>
    </mxGraphModel>
  </diagram>
</mxfile>
